<?xml version="1.0" encoding="UTF-8" standalone="no"?>
<!-- Created with Inkscape (http://www.inkscape.org/) -->

<svg
   xmlns:dc="http://purl.org/dc/elements/1.1/"
   xmlns:cc="http://creativecommons.org/ns#"
   xmlns:rdf="http://www.w3.org/1999/02/22-rdf-syntax-ns#"
   xmlns:svg="http://www.w3.org/2000/svg"
   xmlns="http://www.w3.org/2000/svg"
   xmlns:sodipodi="http://sodipodi.sourceforge.net/DTD/sodipodi-0.dtd"
   xmlns:inkscape="http://www.inkscape.org/namespaces/inkscape"
   width="210mm"
   height="297mm"
   viewBox="0 0 744.09448819 1052.3622047"
   id="svg2"
   version="1.1"
   inkscape:version="0.91 r13725"
   sodipodi:docname="icons.svg">
  <defs
     id="defs4" />
  <sodipodi:namedview
     id="base"
     pagecolor="#ffffff"
     bordercolor="#666666"
     borderopacity="1.0"
     inkscape:pageopacity="0.0"
     inkscape:pageshadow="2"
     inkscape:zoom="2.2972579"
     inkscape:cx="284.14253"
     inkscape:cy="119.08342"
     inkscape:document-units="px"
     inkscape:current-layer="layer1"
     showgrid="false"
     showguides="true"
     inkscape:guide-bbox="true"
     inkscape:snap-global="true"
     inkscape:snap-bbox="false"
     inkscape:snap-nodes="false"
     inkscape:window-width="1366"
     inkscape:window-height="715"
     inkscape:window-x="-8"
     inkscape:window-y="304"
     inkscape:window-maximized="1">
    <sodipodi:guide
       position="76.874224,285.45039"
       orientation="0,1"
       id="guide4229" />
    <sodipodi:guide
       position="79.798369,235.39365"
       orientation="0,1"
       id="guide4231" />
    <sodipodi:guide
       position="143.41775,202.63168"
       orientation="1,0"
       id="guide4233" />
    <sodipodi:guide
       position="150.68964,258.53671"
       orientation="1,0"
       id="guide4235" />
    <sodipodi:guide
       position="70.79092,277.83124"
       orientation="0,1"
       id="guide4237" />
    <sodipodi:guide
       position="71.141361,242.28078"
       orientation="0,1"
       id="guide4254" />
    <sodipodi:guide
       position="164.09838,196.41788"
       orientation="1,0"
       id="guide3430" />
    <sodipodi:guide
       position="368.28833,167.86899"
       orientation="1,0"
       id="guide3551" />
    <sodipodi:guide
       position="407.98641,153.98794"
       orientation="1,0"
       id="guide3553" />
  </sodipodi:namedview>
  <metadata
     id="metadata7">
    <rdf:RDF>
      <cc:Work
         rdf:about="">
        <dc:format>image/svg+xml</dc:format>
        <dc:type
           rdf:resource="http://purl.org/dc/dcmitype/StillImage" />
        <dc:title />
      </cc:Work>
    </rdf:RDF>
  </metadata>
  <g
     inkscape:label="Layer 1"
     inkscape:groupmode="layer"
     id="layer1">
    <circle
       style="fill:#000000;fill-opacity:1;stroke-width:2;stroke-miterlimit:4;stroke-dasharray:none"
       id="path3336"
       cx="125.68103"
       cy="849.22577"
       r="25" />
    <circle
       style="fill:#ffffff;fill-opacity:1;stroke-width:2;stroke-miterlimit:4;stroke-dasharray:none"
       id="path3338"
       cx="125.63162"
       cy="849.58295"
       r="17.807781" />
    <path
       style="fill:#ffffff;fill-opacity:1;stroke-width:2;stroke-miterlimit:4;stroke-dasharray:none"
       id="path3338-7"
       r="17.807781"
       cy="791.0899"
       cx="292.38974" />
    <circle
       style="fill:#000000;fill-opacity:1;stroke-width:2;stroke-miterlimit:4;stroke-dasharray:none"
       id="path3336-9"
       cx="70.795082"
       cy="791.95941"
       r="25" />
    <circle
       style="fill:#ffffff;fill-opacity:1;stroke-width:2;stroke-miterlimit:4;stroke-dasharray:none"
       id="path3338-0"
       cx="70.745674"
       cy="792.31659"
       r="17.807781" />
    <g
       id="g3583">
      <path
         id="path3336-6"
         d="M 310.98242 842.26562 A 25 25 0 0 0 296.81836 846.47656 A 25 25 0 0 0 287.61133 876.83203 A 25 25 0 0 0 315.58594 891.7832 A 25 25 0 0 0 335.70898 867.26367 L 328.18164 867.26367 A 17.807781 17.807781 0 0 1 328.19727 867.72852 A 17.807781 17.807781 0 0 1 310.38867 885.53516 A 17.807781 17.807781 0 0 1 292.58203 867.72852 A 17.807781 17.807781 0 0 1 310.38867 849.91992 A 17.807781 17.807781 0 0 1 322.89844 855.07422 L 328.38672 849.58594 A 25 25 0 0 0 310.98242 842.26562 z "
         style="fill:#000000;fill-opacity:1;stroke-width:2;stroke-miterlimit:4;stroke-dasharray:none" />
      <rect
         y="861.77655"
         x="314.3541"
         height="1.9642857"
         width="3.5714285"
         id="rect3364"
         style="fill:#ffffff;fill-opacity:1;stroke-width:2;stroke-miterlimit:4;stroke-dasharray:none" />
      <path
         inkscape:connector-curvature="0"
         id="rect4188"
         d="m 335.66666,842.1384 -20.43555,20.4082 20.43555,0 0,-20.4082 z"
         style="fill:#000000;fill-opacity:1;stroke:#000000;stroke-width:0.1;stroke-miterlimit:4;stroke-dasharray:none;stroke-opacity:1" />
    </g>
    <rect
       style="opacity:1;fill:#ffffff;fill-opacity:1;stroke:#d40000;stroke-width:0;stroke-miterlimit:4;stroke-dasharray:none;stroke-opacity:1"
       id="rect3396"
       width="1.5235555"
       height="17.085587"
       x="195.23276"
       y="835.36438"
       ry="0.32647601" />
    <g
       id="g3473"
       transform="translate(159.44283,9.8497504)">
      <path
         inkscape:connector-curvature="0"
         id="rect4227"
         d="m 216.54432,831.19945 c -4.26424,0 -7.69727,3.43303 -7.69727,7.69727 l 0,34.5332 c 0,4.26424 3.43303,7.69727 7.69727,7.69727 l 24.30273,0 c 4.26424,0 7.69727,-3.43303 7.69727,-7.69727 l 0,-34.5332 c 0,-4.26424 -3.43303,-7.69727 -7.69727,-7.69727 l -24.30273,0 z m 3.43359,6.36524 17.55469,0 c 2.54304,0 4.58984,2.0468 4.58984,4.58984 l 0,28.35938 c 0,2.54304 -2.0468,4.59179 -4.58984,4.59179 l -17.55469,0 c -2.54305,0 -4.58984,-2.04875 -4.58984,-4.59179 l 0,-28.35938 c 0,-2.54304 2.04679,-4.58984 4.58984,-4.58984 z"
         style="opacity:1;fill:#000000;fill-opacity:1;stroke:#d40000;stroke-width:0;stroke-miterlimit:4;stroke-dasharray:none;stroke-opacity:1" />
      <path
         inkscape:connector-curvature="0"
         id="path3461"
         d="m 217.09938,842.04779 22.41803,0"
         style="fill:none;fill-rule:evenodd;stroke:#000000;stroke-width:1px;stroke-linecap:butt;stroke-linejoin:miter;stroke-opacity:1" />
      <path
         inkscape:connector-curvature="0"
         id="path3463"
         d="m 217.09938,846.29198 17.08559,0"
         style="fill:none;fill-rule:evenodd;stroke:#000000;stroke-width:1px;stroke-linecap:butt;stroke-linejoin:miter;stroke-opacity:1" />
      <path
         inkscape:connector-curvature="0"
         id="path3467"
         d="m 217.09938,850.53618 13.16787,0"
         style="fill:none;fill-rule:evenodd;stroke:#000000;stroke-width:1px;stroke-linecap:butt;stroke-linejoin:miter;stroke-opacity:1" />
      <path
         inkscape:connector-curvature="0"
         id="path3471"
         d="m 217.09938,854.78036 18.50032,0"
         style="fill:none;fill-rule:evenodd;stroke:#000000;stroke-width:1px;stroke-linecap:butt;stroke-linejoin:miter;stroke-opacity:1" />
    </g>
    <g
       id="g3561"
       transform="translate(62.683427,-39.177142)">
      <path
         inkscape:connector-curvature="0"
         id="rect4227-1"
         d="m 368.7995,904.08169 c -0.16493,0 -0.32743,0.0119 -0.48978,0.0215 l 0,6.22461 25.66326,0 0,-6.23828 c -0.0659,-0.002 -0.13048,-0.008 -0.19671,-0.008 l -24.97677,0 z"
         style="opacity:1;fill:#000000;fill-opacity:1;stroke:#d40000;stroke-width:0;stroke-miterlimit:4;stroke-dasharray:none;stroke-opacity:1" />
      <path
         inkscape:connector-curvature="0"
         id="rect4188-9"
         d="m 393.57683,892.42758 -0.0193,28.8809 14.45012,-14.45012 -14.43078,-14.43078 z"
         style="fill:#000000;fill-opacity:1;stroke:#000000;stroke-width:0.1;stroke-miterlimit:4;stroke-dasharray:none;stroke-opacity:1" />
    </g>
  </g>
</svg>
